<?xml version="1.0" standalone="no"?><!-- Generator: Gravit.io --><svg xmlns="http://www.w3.org/2000/svg" xmlns:xlink="http://www.w3.org/1999/xlink" style="isolation:isolate" viewBox="234.56264007062813 302.56885219220254 155.1229806561062 131" width="155.1229806561062" height="131"><defs><filter id="sHNZSm73ZNMiUNTfKxSZdSbcRFMJzNTZ" x="-200%" y="-200%" width="400%" height="400%"><feOffset xmlns="http://www.w3.org/2000/svg" in="SourceAlpha" result="offOut" dx="10" dy="5"/><feGaussianBlur xmlns="http://www.w3.org/2000/svg" in="offOut" result="blurOut" stdDeviation="2.5"/><feComponentTransfer xmlns="http://www.w3.org/2000/svg" in="blurOut" result="opacOut"><feFuncA xmlns="http://www.w3.org/2000/svg" type="table" tableValues="0 0.5"/></feComponentTransfer><feBlend xmlns="http://www.w3.org/2000/svg" in="SourceGraphic" in2="opacOut" mode="normal"/></filter></defs><g filter="url(#sHNZSm73ZNMiUNTfKxSZdSbcRFMJzNTZ)"><path d=" M 300.7102530627824 423.56885219220254 Q 342.3768773013511 419.06885219220254 357.8768773013511 388.56885219220254 Q 373.3768773013511 358.06885219220254 349.8768773013511 302.56885219220254 L 253.87687730135113 302.56885219220254 Q 235.37687730135113 344.06885219220254 241.87687730135113 376.56885219220254 Q 248.37687730135113 409.06885219220254 300.7102530627824 423.56885219220254 Z " fill="rgb(85,0,0)" stroke-width="3" stroke="rgba(0,0,0,0)" stroke-linejoin="miter" stroke-linecap="square"/></g><circle vector-effect="non-scaling-stroke" cx="0" cy="0" r="1" fill="rgb(230,230,191)" transform="matrix(2.6347996449213613,0,0,2.7499999999999982,259.3105074710736,313.0909414416686)" stroke-width="2" stroke="rgba(0,0,0,0)"/><circle vector-effect="non-scaling-stroke" cx="0" cy="0" r="1" fill="rgb(230,230,191)" transform="matrix(2.6347996449213613,0,0,2.7499999999999982,272.31050747107366,313.0909414416686)" stroke-width="2" stroke="rgba(0,0,0,0)"/><circle vector-effect="non-scaling-stroke" cx="0" cy="0" r="1" fill="rgb(230,230,191)" transform="matrix(2.6347996449213613,0,0,2.7499999999999982,285.31050747107366,313.0909414416686)" stroke-width="2" stroke="rgba(0,0,0,0)"/><circle vector-effect="non-scaling-stroke" cx="0" cy="0" r="1" fill="rgb(230,230,191)" transform="matrix(2.6347996449213613,0,0,2.7499999999999982,298.075453417861,313.0909414416686)" stroke-width="2" stroke="rgba(0,0,0,0)"/><circle vector-effect="non-scaling-stroke" cx="0" cy="0" r="1" fill="rgb(230,230,191)" transform="matrix(2.6347996449213613,0,0,2.7499999999999982,313.31050747107366,313.0909414416686)" stroke-width="2" stroke="rgba(0,0,0,0)"/><circle vector-effect="non-scaling-stroke" cx="0" cy="0" r="1" fill="rgb(230,230,191)" transform="matrix(2.6347996449213613,0,0,2.7499999999999982,327.31050747107366,313.0909414416686)" stroke-width="2" stroke="rgba(0,0,0,0)"/><circle vector-effect="non-scaling-stroke" cx="0" cy="0" r="1" fill="rgb(230,230,191)" transform="matrix(2.6347996449213613,0,0,2.7499999999999982,341.31050747107366,313.0909414416686)" stroke-width="2" stroke="rgba(0,0,0,0)"/><path d=" M 354.3255198293077 384.3769485475575 Q 365.0697767483332 370.2571157898952 348.780096903359 321.7719444911975 L 336.7454168099459 382.3805177919558 Q 300.64162110669355 396.8214589634106 305.14727723402683 411.86718239370646 C 309.6529333613601 426.91290582400234 343.58126291028213 398.4967813052198 354.3255198293077 384.3769485475575 Z " fill="rgb(230,230,191)" stroke-width="3" stroke="rgba(0,0,0,0)" stroke-linejoin="miter" stroke-linecap="square"/><path d=" M 249.96018337469357 383.3257721875026 Q 239.21592645566804 369.20593942984027 255.50560630064226 320.72076813114256 L 267.5402863940554 381.3293414319009 Q 303.6440820973077 395.77028260335567 299.13842596997443 410.81600603365155 C 294.63276984264115 425.8617294639474 260.70444029371913 397.4456049451649 249.96018337469357 383.3257721875026 Z " fill="rgb(230,230,191)" stroke-width="3" stroke="rgba(0,0,0,0)" stroke-linejoin="miter" stroke-linecap="square"/><defs><filter id="E4UzA07D8pv4LSFPwiITADLb0N5F4333" x="-200%" y="-200%" width="400%" height="400%"><feOffset xmlns="http://www.w3.org/2000/svg" in="SourceAlpha" result="offOut" dx="5" dy="5"/><feGaussianBlur xmlns="http://www.w3.org/2000/svg" in="offOut" result="blurOut" stdDeviation="2.5"/><feComponentTransfer xmlns="http://www.w3.org/2000/svg" in="blurOut" result="opacOut"><feFuncA xmlns="http://www.w3.org/2000/svg" type="table" tableValues="0 0.5"/></feComponentTransfer><feBlend xmlns="http://www.w3.org/2000/svg" in="SourceGraphic" in2="opacOut" mode="normal"/></filter></defs><g filter="url(#E4UzA07D8pv4LSFPwiITADLb0N5F4333)"><path d=" M 293.35116851329866 394.18313183235705 L 286.4336052112045 401.17342309449293 Q 239.91334695709966 351.01205188448284 234.8454061934285 329.4439296502746 Q 229.7774654297573 307.8758074160663 315.54085668605626 376.3948235255234 L 308.65899592567104 380.86168903805384 L 317.56264007062805 385.8008886769551 L 297.6746455771075 404.28021921099787 L 293.35116851329866 394.18313183235705 Z " fill="rgb(255,128,0)" stroke-width="3" stroke="rgba(0,0,0,0)" stroke-linejoin="miter" stroke-linecap="square"/></g><path d=" M 304.6473705319497 368.8619727420886 Q 257.6105349663283 331.91433298275376 242.73660379781217 328.0961151906532 Q 227.862672629296 324.2778973985527 242.49673783224316 328.0961151906532 C 274.9934471826913 353.5816478788022 294.703359192275 368.5485397283463 301.62647386099434 372.9967907392855 L 312.6589959256711 374.92556164826453 L 304.6473705319497 368.8619727420886 Z " fill="rgb(206,106,6)" stroke-width="3" stroke="rgba(0,0,0,0)" stroke-linejoin="miter" stroke-linecap="square"/><defs><filter id="ILZYDlEXyVbbBgl3oZceVOnKyIFfNVgx" x="-200%" y="-200%" width="400%" height="400%"><feOffset xmlns="http://www.w3.org/2000/svg" in="SourceAlpha" result="offOut" dx="10" dy="5"/><feGaussianBlur xmlns="http://www.w3.org/2000/svg" in="offOut" result="blurOut" stdDeviation="2.5"/><feComponentTransfer xmlns="http://www.w3.org/2000/svg" in="blurOut" result="opacOut"><feFuncA xmlns="http://www.w3.org/2000/svg" type="table" tableValues="0 0.5"/></feComponentTransfer><feBlend xmlns="http://www.w3.org/2000/svg" in="SourceGraphic" in2="opacOut" mode="normal"/></filter></defs><g filter="url(#ILZYDlEXyVbbBgl3oZceVOnKyIFfNVgx)"><path d=" M 238.23418666173575 410.98605589405946 L 247.8749350319686 413 L 293.4402257342156 377.6050246049002 L 286.234813150902 367.9054354638991 Q 237.83367198409508 397.26236878042283 237.18070745928904 406.0982975561286 Q 236.52774293448303 414.93422633183434 238.23418666173575 410.98605589405946 Z " fill="rgb(170,43,0)" stroke-width="3" stroke="rgba(0,0,0,0)" stroke-linejoin="miter" stroke-linecap="square"/></g><defs><filter id="B5gXuNkkwBHltoHLnZBFNSWQX4IkdznE" x="-200%" y="-200%" width="400%" height="400%"><feOffset xmlns="http://www.w3.org/2000/svg" in="SourceAlpha" result="offOut" dx="10" dy="5"/><feGaussianBlur xmlns="http://www.w3.org/2000/svg" in="offOut" result="blurOut" stdDeviation="2.5"/><feComponentTransfer xmlns="http://www.w3.org/2000/svg" in="blurOut" result="opacOut"><feFuncA xmlns="http://www.w3.org/2000/svg" type="table" tableValues="0 0.5"/></feComponentTransfer><feBlend xmlns="http://www.w3.org/2000/svg" in="SourceGraphic" in2="opacOut" mode="normal"/></filter></defs><g filter="url(#B5gXuNkkwBHltoHLnZBFNSWQX4IkdznE)"><path d=" M 295.652198466846 364.22646531757925 Q 304.0982917924688 360.1043745210452 310.7368651616172 363.0211310454115 Q 317.37543853076556 365.93788756977784 313.0374326429077 359.45638852118503 L 317.56264007062805 347.2284492943118 Q 353.25774540432644 322.40028826260874 370.3333433561887 321.5330630402131 C 387.4089413080509 320.6658378178174 349.8140238965914 377.6153521689121 333.8697278016592 375.4255925845895 Q 317.9254317067272 373.2358330002669 308.4362976803268 366.58587356963807 L 299.6383326720513 368.4821361340421 L 295.652198466846 364.22646531757925 Z " fill="rgb(169,169,169)" stroke-width="3" stroke="rgba(0,0,0,0)" stroke-linejoin="miter" stroke-linecap="square"/></g><defs><filter id="jFpU1OGCTvd8lfJBS8xZd3N6e8nDybe3" x="-200%" y="-200%" width="400%" height="400%"><feOffset xmlns="http://www.w3.org/2000/svg" in="SourceAlpha" result="offOut" dx="10" dy="5"/><feGaussianBlur xmlns="http://www.w3.org/2000/svg" in="offOut" result="blurOut" stdDeviation="2.5"/><feComponentTransfer xmlns="http://www.w3.org/2000/svg" in="blurOut" result="opacOut"><feFuncA xmlns="http://www.w3.org/2000/svg" type="table" tableValues="0 0.5"/></feComponentTransfer><feBlend xmlns="http://www.w3.org/2000/svg" in="SourceGraphic" in2="opacOut" mode="normal"/></filter></defs><g filter="url(#jFpU1OGCTvd8lfJBS8xZd3N6e8nDybe3)"><rect x="288.2293787912206" y="365.1337097878922" width="10.75" height="9.612179487179105" transform="matrix(0.8293834667854361,-0.5586797517567389,0.5586797517567388,0.8293834667854361,-156.58411412121222,227.14866755192284)" fill="rgb(149,149,149)" stroke-width="3" stroke="rgba(0,0,0,0)" stroke-linejoin="miter" stroke-linecap="square"/></g><path d=" M 244.66929470182174 404.28021921099787 L 246.83163391418105 410.6095347419604 L 289.7253335457566 376.4925860701314 L 289.72533354575665 376.4925860701314 Q 245.94518099697189 395.5125448236903 244.66929470182174 404.28021921099787 Q 243.39340840667154 413.04789359830534 244.66929470182174 404.28021921099787 Z " fill="rgb(118,30,1)" stroke-width="3" stroke="rgba(0,0,0,0)" stroke-linejoin="miter" stroke-linecap="square"/><path d=" M 328.53161160253626 365.45038291835 L 372.96603231077404 326.8795990629635 Q 347.6934370322816 373.54247794619744 331.74914093734947 371.3527183618748 Q 315.8048448424174 369.1629587775522 328.53161160253626 365.45038291835 Z " fill="rgb(118,117,117)" stroke-width="3" stroke="rgba(0,0,0,0)" stroke-linejoin="miter" stroke-linecap="square"/></svg>